<?xml version="1.0" encoding="utf-8"?>
<!-- Generator: Adobe Illustrator 23.0.4, SVG Export Plug-In . SVG Version: 6.00 Build 0)  -->
<svg version="1.1" id="Layer_1" xmlns="http://www.w3.org/2000/svg" xmlns:xlink="http://www.w3.org/1999/xlink" x="0px" y="0px"
	 viewBox="0 0 300 100" style="enable-background:new 0 0 300 100;" xml:space="preserve">
<style type="text/css">
	.st0{fill:#082B49;}
	.st1{fill:#DF1F29;}
	.st2{fill:none;stroke:url(#SVGID_1_);stroke-miterlimit:10;}
	.st3{fill:#39C5F3;}
	.st4{fill:url(#SVGID_2_);stroke:url(#SVGID_3_);stroke-miterlimit:10;}
	.st5{fill:url(#SVGID_4_);}
	.st6{fill:#5B7E92;}
	.st7{fill:#A3B9C7;}
</style>
<g>
	<g>
		<g>
			<path class="st0" d="M139.51,32.2h-15.77c0.28,1.29,0.95,2.31,2.01,3.06c1.06,0.75,2.38,1.12,3.95,1.12
				c1.08,0,2.05-0.16,2.89-0.48c0.84-0.32,1.62-0.83,2.34-1.53l3.22,3.49c-1.96,2.25-4.83,3.37-8.6,3.37
				c-2.35,0-4.43-0.46-6.24-1.38c-1.81-0.92-3.2-2.19-4.19-3.82c-0.98-1.63-1.47-3.48-1.47-5.54c0-2.04,0.48-3.88,1.45-5.52
				c0.97-1.64,2.3-2.92,3.99-3.84c1.69-0.92,3.58-1.38,5.68-1.38c2.04,0,3.89,0.44,5.54,1.32c1.65,0.88,2.95,2.14,3.89,3.78
				c0.94,1.64,1.41,3.55,1.41,5.72C139.63,30.65,139.59,31.2,139.51,32.2z M125.36,25.5c-0.93,0.78-1.5,1.84-1.7,3.18h10.27
				c-0.21-1.32-0.78-2.37-1.71-3.16c-0.93-0.79-2.07-1.18-3.41-1.18C127.44,24.34,126.29,24.72,125.36,25.5z"/>
			<path class="st0" d="M144.62,40.6c-1.65-0.43-2.97-0.96-3.95-1.61l2.02-4.34c0.93,0.6,2.05,1.08,3.37,1.45
				c1.32,0.37,2.61,0.56,3.88,0.56c2.56,0,3.84-0.63,3.84-1.9c0-0.59-0.35-1.02-1.05-1.28c-0.7-0.26-1.77-0.48-3.22-0.66
				c-1.71-0.26-3.11-0.55-4.23-0.89c-1.11-0.33-2.07-0.93-2.89-1.78c-0.81-0.85-1.22-2.07-1.22-3.64c0-1.32,0.38-2.49,1.14-3.51
				c0.76-1.02,1.87-1.82,3.33-2.38c1.46-0.57,3.18-0.85,5.17-0.85c1.47,0,2.94,0.16,4.4,0.48c1.46,0.32,2.67,0.77,3.62,1.34
				l-2.02,4.3c-1.84-1.03-3.84-1.55-6.01-1.55c-1.29,0-2.26,0.18-2.91,0.54c-0.65,0.36-0.97,0.83-0.97,1.4
				c0,0.65,0.35,1.1,1.05,1.36c0.7,0.26,1.81,0.5,3.33,0.74c1.7,0.28,3.1,0.59,4.19,0.91c1.08,0.32,2.03,0.91,2.83,1.76
				c0.8,0.85,1.2,2.04,1.2,3.57c0,1.29-0.39,2.44-1.16,3.45c-0.78,1.01-1.91,1.79-3.39,2.35c-1.49,0.55-3.25,0.83-5.29,0.83
				C147.97,41.24,146.28,41.02,144.62,40.6z"/>
			<path class="st0" d="M171.25,32.75l-2.91,2.87v5.31h-6.05V12.17h6.05v16.28l8.84-8.37h7.21l-8.68,8.84l9.46,12.01h-7.32
				L171.25,32.75z"/>
			<path class="st1" d="M187.06,16.2c-0.7-0.64-1.05-1.45-1.05-2.4c0-0.96,0.35-1.76,1.05-2.4c0.7-0.64,1.6-0.97,2.71-0.97
				c1.11,0,2.01,0.31,2.71,0.93c0.7,0.62,1.05,1.4,1.05,2.32c0,1.01-0.35,1.84-1.05,2.5c-0.7,0.66-1.6,0.99-2.71,0.99
				C188.66,17.17,187.76,16.84,187.06,16.2z"/>
			<rect x="186.75" y="20.07" class="st0" width="6.05" height="20.85"/>
			<path class="st0" d="M199.39,40.6c-1.65-0.43-2.97-0.96-3.95-1.61l2.01-4.34c0.93,0.6,2.05,1.08,3.37,1.45
				c1.32,0.37,2.61,0.56,3.88,0.56c2.56,0,3.84-0.63,3.84-1.9c0-0.59-0.35-1.02-1.05-1.28c-0.7-0.26-1.77-0.48-3.22-0.66
				c-1.71-0.26-3.11-0.55-4.23-0.89c-1.11-0.33-2.07-0.93-2.89-1.78c-0.81-0.85-1.22-2.07-1.22-3.64c0-1.32,0.38-2.49,1.14-3.51
				c0.76-1.02,1.87-1.82,3.33-2.38c1.46-0.57,3.18-0.85,5.17-0.85c1.47,0,2.94,0.16,4.4,0.48c1.46,0.32,2.67,0.77,3.62,1.34
				l-2.02,4.3c-1.83-1.03-3.84-1.55-6.01-1.55c-1.29,0-2.26,0.18-2.91,0.54c-0.65,0.36-0.97,0.83-0.97,1.4
				c0,0.65,0.35,1.1,1.05,1.36c0.7,0.26,1.81,0.5,3.33,0.74c1.71,0.28,3.1,0.59,4.18,0.91c1.09,0.32,2.03,0.91,2.83,1.76
				c0.8,0.85,1.2,2.04,1.2,3.57c0,1.29-0.39,2.44-1.16,3.45c-0.78,1.01-1.91,1.79-3.39,2.35c-1.49,0.55-3.25,0.83-5.29,0.83
				C202.73,41.24,201.04,41.02,199.39,40.6z M201.52,49.7c-0.65-0.14-1.19-0.34-1.63-0.6l0.93-2.6c0.83,0.39,1.67,0.58,2.52,0.58
				c1.34,0,2.01-0.41,2.01-1.24c0-0.75-0.63-1.12-1.9-1.12h-1.32l1.01-4.11h3.22l-0.54,2.25c1.14,0.13,1.98,0.48,2.54,1.06
				c0.55,0.58,0.83,1.3,0.83,2.15c0,1.19-0.52,2.13-1.55,2.81c-1.03,0.69-2.42,1.03-4.15,1.03
				C202.82,49.92,202.16,49.85,201.52,49.7z"/>
			<path class="st0" d="M237.37,32.2h-15.77c0.28,1.29,0.96,2.31,2.02,3.06c1.06,0.75,2.38,1.12,3.95,1.12
				c1.09,0,2.05-0.16,2.89-0.48c0.84-0.32,1.62-0.83,2.35-1.53l3.22,3.49c-1.96,2.25-4.83,3.37-8.61,3.37
				c-2.35,0-4.43-0.46-6.24-1.38c-1.81-0.92-3.2-2.19-4.19-3.82c-0.98-1.63-1.47-3.48-1.47-5.54c0-2.04,0.48-3.88,1.45-5.52
				c0.97-1.64,2.3-2.92,3.99-3.84c1.69-0.92,3.59-1.38,5.68-1.38c2.04,0,3.89,0.44,5.54,1.32c1.65,0.88,2.95,2.14,3.9,3.78
				c0.94,1.64,1.41,3.55,1.41,5.72C237.48,30.65,237.45,31.2,237.37,32.2z M223.22,25.5c-0.93,0.78-1.5,1.84-1.71,3.18h10.27
				c-0.21-1.32-0.78-2.37-1.71-3.16c-0.93-0.79-2.07-1.18-3.41-1.18C225.3,24.34,224.15,24.72,223.22,25.5z"/>
			<path class="st0" d="M259.48,22.09c1.59,1.55,2.38,3.85,2.38,6.9v11.94h-6.05V29.92c0-1.65-0.36-2.89-1.08-3.7
				c-0.72-0.81-1.77-1.22-3.14-1.22c-1.53,0-2.74,0.47-3.64,1.41c-0.9,0.94-1.36,2.35-1.36,4.21v10.31h-6.05V12.17h6.05v10.08
				c0.8-0.8,1.77-1.41,2.91-1.84c1.14-0.43,2.38-0.64,3.72-0.64C255.8,19.76,257.89,20.54,259.48,22.09z"/>
			<path class="st1" d="M266.67,16.2c-0.7-0.64-1.05-1.45-1.05-2.4c0-0.96,0.35-1.76,1.05-2.4c0.7-0.64,1.6-0.97,2.71-0.97
				c1.11,0,2.02,0.31,2.71,0.93c0.7,0.62,1.05,1.4,1.05,2.32c0,1.01-0.35,1.84-1.05,2.5c-0.7,0.66-1.6,0.99-2.71,0.99
				C268.27,17.17,267.37,16.84,266.67,16.2z"/>
			<rect x="266.36" y="20.07" class="st0" width="6.05" height="20.85"/>
			<path class="st0" d="M285.76,20.54c1.23-0.52,2.64-0.78,4.24-0.78v5.58c-0.67-0.05-1.12-0.08-1.36-0.08
				c-1.73,0-3.09,0.49-4.07,1.45c-0.98,0.97-1.47,2.42-1.47,4.36v9.84h-6.04V20.07h5.77v2.75
				C283.55,21.82,284.53,21.06,285.76,20.54z"/>
		</g>
		<g>
			<path class="st0" d="M135.42,60c1.66,1.65,2.49,4.03,2.49,7.14v13.27h-2.19v-13.1c0-2.55-0.65-4.5-1.95-5.83
				c-1.3-1.33-3.11-2-5.44-2c-2.68,0-4.8,0.8-6.34,2.39c-1.54,1.6-2.32,3.74-2.32,6.44v12.1h-2.19V48.12h2.19v14.32
				c0.79-1.57,1.95-2.78,3.5-3.63c1.55-0.85,3.37-1.29,5.47-1.29C131.5,57.52,133.76,58.35,135.42,60z"/>
			<path class="st1" d="M145.65,51.67c-0.35-0.34-0.53-0.75-0.53-1.24c0-0.49,0.18-0.91,0.53-1.26c0.35-0.35,0.77-0.52,1.27-0.52
				c0.5,0,0.92,0.17,1.27,0.5c0.35,0.33,0.52,0.75,0.52,1.24c0,0.49-0.17,0.91-0.52,1.26c-0.35,0.35-0.77,0.52-1.27,0.52
				C146.42,52.17,146,52,145.65,51.67z"/>
			<rect x="145.82" y="57.7" class="st0" width="2.19" height="22.72"/>
			<path class="st0" d="M176.43,48.12v32.29h-2.14v-5.35c-0.9,1.77-2.17,3.13-3.8,4.09c-1.63,0.96-3.48,1.44-5.55,1.44
				c-2.13,0-4.05-0.49-5.77-1.48c-1.72-0.99-3.07-2.35-4.04-4.09c-0.98-1.74-1.47-3.73-1.47-5.96c0-2.23,0.49-4.23,1.47-5.98
				c0.98-1.75,2.32-3.12,4.04-4.09c1.72-0.97,3.64-1.46,5.77-1.46c2.04,0,3.87,0.48,5.49,1.44c1.62,0.96,2.89,2.29,3.83,4V48.12
				H176.43z M169.76,77.41c1.38-0.81,2.48-1.94,3.28-3.39c0.8-1.45,1.2-3.1,1.2-4.96c0-1.86-0.4-3.51-1.2-4.96
				c-0.8-1.45-1.9-2.58-3.28-3.4c-1.38-0.81-2.95-1.22-4.7-1.22c-1.75,0-3.31,0.41-4.7,1.22c-1.38,0.81-2.48,1.94-3.28,3.4
				c-0.8,1.45-1.2,3.1-1.2,4.96c0,1.86,0.4,3.51,1.2,4.96c0.8,1.45,1.89,2.58,3.28,3.39c1.38,0.81,2.95,1.22,4.7,1.22
				C166.81,78.63,168.37,78.23,169.76,77.41z"/>
			<path class="st0" d="M189.94,58.85c1.49-0.88,3.29-1.33,5.42-1.33v2.13l-0.52-0.04c-2.54,0-4.52,0.79-5.95,2.37
				c-1.43,1.58-2.14,3.78-2.14,6.59v11.84h-2.19V57.7h2.1v4.96C187.36,61.01,188.45,59.74,189.94,58.85z"/>
			<path class="st0" d="M203.16,79.11c-1.73-0.99-3.1-2.36-4.09-4.11c-0.99-1.76-1.49-3.74-1.49-5.94c0-2.2,0.49-4.18,1.49-5.94
				c0.99-1.76,2.35-3.13,4.09-4.11c1.73-0.98,3.68-1.48,5.84-1.48c2.16,0,4.1,0.49,5.84,1.48c1.73,0.99,3.1,2.36,4.09,4.11
				c0.99,1.76,1.49,3.74,1.49,5.94c0,2.21-0.5,4.18-1.49,5.94c-0.99,1.76-2.35,3.13-4.09,4.11c-1.73,0.99-3.68,1.48-5.84,1.48
				C206.84,80.59,204.9,80.1,203.16,79.11z M213.7,77.41c1.39-0.81,2.48-1.94,3.28-3.39c0.8-1.45,1.2-3.1,1.2-4.96
				c0-1.86-0.4-3.51-1.2-4.96c-0.8-1.45-1.89-2.58-3.28-3.4c-1.38-0.81-2.95-1.22-4.7-1.22c-1.75,0-3.32,0.41-4.7,1.22
				c-1.38,0.81-2.48,1.94-3.28,3.4c-0.8,1.45-1.2,3.1-1.2,4.96c0,1.86,0.4,3.51,1.2,4.96c0.8,1.45,1.89,2.58,3.28,3.39
				c1.38,0.81,2.95,1.22,4.7,1.22C210.75,78.63,212.31,78.23,213.7,77.41z"/>
			<path class="st0" d="M243.32,59c1.72,0.99,3.07,2.35,4.04,4.09c0.98,1.74,1.46,3.73,1.46,5.96c0,2.23-0.49,4.23-1.46,5.98
				c-0.98,1.76-2.32,3.12-4.04,4.09c-1.72,0.97-3.64,1.46-5.77,1.46c-2.01,0-3.83-0.47-5.46-1.41c-1.63-0.94-2.9-2.26-3.8-3.94
				v13.62h-2.19V57.7h2.1v5.35c0.9-1.74,2.18-3.1,3.83-4.07c1.65-0.97,3.49-1.46,5.53-1.46C239.68,57.52,241.6,58.02,243.32,59z
				 M242.14,77.41c1.4-0.81,2.5-1.94,3.3-3.39c0.8-1.45,1.2-3.1,1.2-4.96c0-1.86-0.4-3.51-1.2-4.96c-0.8-1.45-1.9-2.58-3.3-3.4
				c-1.4-0.81-2.97-1.22-4.72-1.22c-1.75,0-3.32,0.41-4.7,1.22c-1.38,0.81-2.48,1.94-3.28,3.4c-0.8,1.45-1.2,3.1-1.2,4.96
				c0,1.86,0.4,3.51,1.2,4.96c0.8,1.45,1.9,2.58,3.28,3.39c1.38,0.81,2.95,1.22,4.7,1.22C239.17,78.63,240.74,78.23,242.14,77.41z"
				/>
			<path class="st0" d="M268.63,59.68c1.51,1.44,2.27,3.55,2.27,6.33v14.41h-2.1v-4.05c-0.73,1.33-1.79,2.37-3.19,3.11
				c-1.4,0.74-3.07,1.11-5.03,1.11c-2.54,0-4.54-0.6-6.01-1.78c-1.47-1.19-2.21-2.76-2.21-4.7c0-1.89,0.68-3.42,2.03-4.59
				c1.36-1.18,3.52-1.76,6.49-1.76h7.82v-1.83c0-2.12-0.57-3.73-1.73-4.83c-1.15-1.1-2.84-1.65-5.05-1.65
				c-1.52,0-2.97,0.26-4.35,0.78c-1.39,0.52-2.56,1.22-3.52,2.09l-1.09-1.57c1.14-1.01,2.51-1.81,4.11-2.37
				c1.6-0.56,3.28-0.85,5.03-0.85C264.95,57.52,267.12,58.24,268.63,59.68z M265.73,77.5c1.33-0.87,2.32-2.13,2.99-3.79v-4.26h-7.78
				c-2.25,0-3.87,0.41-4.88,1.22c-1.01,0.81-1.51,1.93-1.51,3.35c0,1.48,0.55,2.65,1.66,3.5c1.11,0.86,2.67,1.29,4.68,1.29
				C262.79,78.81,264.4,78.37,265.73,77.5z"/>
			<path class="st0" d="M284.2,58.85c1.49-0.88,3.29-1.33,5.42-1.33v2.13l-0.52-0.04c-2.54,0-4.52,0.79-5.95,2.37
				c-1.43,1.58-2.14,3.78-2.14,6.59v11.84h-2.19V57.7h2.1v4.96C281.62,61.01,282.71,59.74,284.2,58.85z"/>
		</g>
	</g>
	<path class="st0" d="M67.65,65.96c-2.22,1.07-3.26,3.18-2.73,5.49c0.6,2.64,3.01,4.63,5.61,4.63l0,0c0.84,0,1.68-0.2,2.49-0.59
		c9.85-4.76,16.1-14.68,16.3-25.87c0.19-10.69-6.36-21.1-16.3-25.91c-0.81-0.39-1.65-0.59-2.49-0.59c-2.59,0-5,1.99-5.61,4.63
		c-0.53,2.32,0.52,4.42,2.73,5.49c4.83,2.34,8.28,6.19,9.82,10.94H44.41c1.52-4.61,5.14-8.63,9.9-10.94
		c2.22-1.07,3.26-3.17,2.73-5.49c-0.6-2.64-3.01-4.63-5.61-4.63c-0.84,0-1.68,0.2-2.49,0.59c-9.85,4.76-16.1,14.67-16.3,25.87
		c-0.19,10.69,6.36,21.1,16.3,25.91c0.81,0.39,1.65,0.59,2.49,0.59c2.59,0,5-1.99,5.61-4.63c0.53-2.32-0.52-4.42-2.73-5.49
		c-4.83-2.34-8.28-6.18-9.82-10.93h33.06C76.03,59.64,72.41,63.66,67.65,65.96z"/>
	<linearGradient id="SVGID_1_" gradientUnits="userSpaceOnUse" x1="60.9811" y1="22.6288" x2="60.9811" y2="76.5845">
		<stop  offset="0" style="stop-color:#082B49"/>
		<stop  offset="1" style="stop-color:#A3B9C7"/>
	</linearGradient>
	<path class="st2" d="M67.65,65.96c-2.22,1.07-3.26,3.18-2.73,5.49c0.6,2.64,3.01,4.63,5.61,4.63l0,0c0.84,0,1.68-0.2,2.49-0.59
		c9.85-4.76,16.1-14.68,16.3-25.87c0.19-10.69-6.36-21.1-16.3-25.91c-0.81-0.39-1.65-0.59-2.49-0.59c-2.59,0-5,1.99-5.61,4.63
		c-0.53,2.32,0.52,4.42,2.73,5.49c4.83,2.34,8.28,6.19,9.82,10.94H44.41c1.52-4.61,5.14-8.63,9.9-10.94
		c2.22-1.07,3.26-3.17,2.73-5.49c-0.6-2.64-3.01-4.63-5.61-4.63c-0.84,0-1.68,0.2-2.49,0.59c-9.85,4.76-16.1,14.67-16.3,25.87
		c-0.19,10.69,6.36,21.1,16.3,25.91c0.81,0.39,1.65,0.59,2.49,0.59c2.59,0,5-1.99,5.61-4.63c0.53-2.32-0.52-4.42-2.73-5.49
		c-4.83-2.34-8.28-6.18-9.82-10.93h33.06C76.03,59.64,72.41,63.66,67.65,65.96z"/>
	<path class="st3" d="M90.05,12.47C81.77,6.03,71.4,2.48,60.83,2.48c-4.07,0-8.15,0.52-12.12,1.54
		C35.27,7.48,23.41,17.7,17.76,30.69c-5.85,13.47-5.04,29.26,2.18,42.25c6.2,11.16,17.56,19.62,30.38,22.65
		c3.41,0.8,6.92,1.21,10.44,1.21c12,0,23.6-4.59,32.65-12.92c1.71-1.58,2.25-3.75,1.45-5.81c-0.91-2.32-3.24-3.94-5.67-3.94
		c-1.4,0-2.73,0.54-3.84,1.56c-6.71,6.18-15.44,9.58-24.58,9.58c-5.37,0-10.52-1.17-15.31-3.48c-11.5-5.54-19.21-16.92-20.12-29.7
		c-0.91-12.8,5.25-25.2,16.08-32.36c5.72-3.78,12.45-5.78,19.48-5.78c5.92,0,11.79,1.45,16.97,4.2
		c9.66,5.13,16.42,14.67,18.29,25.72c-3.59,0.07-5.46,2.92-5.46,5.74c0,2.86,1.92,5.75,5.6,5.75h6.13c1.51,0,3-0.63,4.09-1.73
		c1.08-1.1,1.67-2.53,1.66-4.03C108.03,35.06,101.25,21.19,90.05,12.47z"/>
	<linearGradient id="SVGID_2_" gradientUnits="userSpaceOnUse" x1="61.0169" y1="106.4218" x2="61.0169" y2="-5.0618">
		<stop  offset="0" style="stop-color:#A3B9C7"/>
		<stop  offset="1" style="stop-color:#082B49"/>
	</linearGradient>
	<linearGradient id="SVGID_3_" gradientUnits="userSpaceOnUse" x1="14.5109" y1="49.6399" x2="107.5229" y2="49.6399">
		<stop  offset="0" style="stop-color:#A3B9C7"/>
		<stop  offset="1" style="stop-color:#082B49"/>
	</linearGradient>
	<path class="st4" d="M89.34,13.38C77.9,4.48,63.03,1.52,49,5.13C35.66,8.57,24.29,18.58,18.82,31.15
		c-5.79,13.32-4.9,28.56,2.13,41.23c6.19,11.13,17.32,19.18,29.65,22.09c15.02,3.54,30.79-1.08,42.04-11.44
		c4.37-4.02-2.15-10.5-6.5-6.5C75.05,86.75,58.6,89.39,44.97,82.82c-11.83-5.7-19.84-17.58-20.76-30.66
		c-0.94-13.25,5.55-26.09,16.59-33.4c11.19-7.4,25.84-7.89,37.63-1.64c10.6,5.63,17.54,16.2,19.08,27.88c-0.4,0-0.8,0-1.2,0
		c-5.93,0-5.93,9.19,0,9.19c2.04,0,4.09,0,6.13,0c2.48,0,4.62-2.09,4.59-4.6C106.88,35.52,100.5,22.06,89.34,13.38z"/>
	<path class="st0" d="M67.65,65.96c-2.22,1.07-3.26,3.18-2.73,5.49c0.6,2.64,3.01,4.63,5.61,4.63l0,0c0.84,0,1.68-0.2,2.49-0.59
		c9.85-4.76,16.1-14.68,16.3-25.87c0.19-10.69-6.36-21.1-16.3-25.91c-0.81-0.39-1.65-0.59-2.49-0.59c-2.59,0-5,1.99-5.61,4.63
		c-0.53,2.32,0.52,4.42,2.73,5.49c4.83,2.34,8.28,6.19,9.82,10.94H44.41c1.52-4.61,5.14-8.63,9.9-10.94
		c2.22-1.07,3.26-3.17,2.73-5.49c-0.6-2.64-3.01-4.63-5.61-4.63c-0.84,0-1.68,0.2-2.49,0.59c-9.85,4.76-16.1,14.67-16.3,25.87
		c-0.19,10.69,6.36,21.1,16.3,25.91c0.81,0.39,1.65,0.59,2.49,0.59c2.59,0,5-1.99,5.61-4.63c0.53-2.32-0.52-4.42-2.73-5.49
		c-4.83-2.34-8.28-6.18-9.82-10.93h33.06C76.03,59.64,72.41,63.66,67.65,65.96z"/>
	<linearGradient id="SVGID_4_" gradientUnits="userSpaceOnUse" x1="61.0169" y1="106.4218" x2="61.0169" y2="-5.0618">
		<stop  offset="0" style="stop-color:#A3B9C7"/>
		<stop  offset="1" style="stop-color:#082B49"/>
	</linearGradient>
	<path class="st5" d="M89.34,13.38C77.9,4.48,63.03,1.52,49,5.13C35.66,8.57,24.29,18.58,18.82,31.15
		c-5.79,13.32-4.9,28.56,2.13,41.23c6.19,11.13,17.32,19.18,29.65,22.09c15.02,3.54,30.79-1.08,42.04-11.44
		c4.37-4.02-2.15-10.5-6.5-6.5C75.05,86.75,58.6,89.39,44.97,82.82c-11.83-5.7-19.84-17.58-20.76-30.66
		c-0.94-13.25,5.55-26.09,16.59-33.4c11.19-7.4,25.84-7.89,37.63-1.64c10.6,5.63,17.54,16.2,19.08,27.88c-0.4,0-0.8,0-1.2,0
		c-5.93,0-5.93,9.19,0,9.19c2.04,0,4.09,0,6.13,0c2.48,0,4.62-2.09,4.59-4.6C106.88,35.52,100.5,22.06,89.34,13.38z"/>
	<path class="st6" d="M86.14,76.53C75.05,86.75,58.6,89.39,44.97,82.82c-11.83-5.7-19.84-17.58-20.76-30.66
		c-0.16-2.2-0.1-4.39,0.14-6.55c-3.58,0.8-6.69,1.83-9.31,2.89c-0.18,8.24,1.82,16.5,5.93,23.88c6.19,11.13,17.32,19.18,29.65,22.09
		c15.02,3.54,30.79-1.08,42.04-11.44C97.01,79.01,90.49,72.53,86.14,76.53z"/>
	<path class="st1" d="M102.43,54.2c2.48,0,4.62-2.09,4.59-4.6c-0.03-2.53-0.26-5.04-0.68-7.5c-4.94,4.96-9.64,7.93-14.08,9.53
		c0.63,1.45,1.97,2.57,4.03,2.57C98.34,54.2,100.38,54.2,102.43,54.2z"/>
	<path class="st7" d="M66.35,49.16c-12.87-4.64-24.01-5.63-33.13-4.89c-0.34,1.73-0.53,3.5-0.56,5.31
		c-0.19,10.69,6.36,21.1,16.3,25.91c0.81,0.39,1.65,0.59,2.49,0.59c2.59,0,5-1.99,5.61-4.63c0.53-2.32-0.52-4.42-2.73-5.49
		c-4.83-2.34-8.28-6.18-9.82-10.93h15.23C62.7,53.2,66.32,49.19,66.35,49.16z"/>
	<path class="st3" d="M67.65,65.96c-2.22,1.07-3.26,3.18-2.73,5.49c0.6,2.64,3.01,4.63,5.61,4.63c0.84,0,1.68-0.2,2.49-0.59
		c8.98-4.34,14.96-12.96,16.1-22.93c-7.9,1.82-14.87-0.38-20.69-2.63c-0.7-0.27-1.39-0.52-2.08-0.77c-0.03,0.03-3.65,4.04-6.63,5.87
		h17.83C76.03,59.64,72.41,63.66,67.65,65.96z"/>
</g>
</svg>
