<?xml version="1.0" encoding="utf-8"?>
<!-- Generator: Adobe Illustrator 23.0.4, SVG Export Plug-In . SVG Version: 6.00 Build 0)  -->
<svg version="1.1" id="Layer_1" xmlns="http://www.w3.org/2000/svg" xmlns:xlink="http://www.w3.org/1999/xlink" x="0px" y="0px"
	 viewBox="0 0 300 100" style="enable-background:new 0 0 300 100;" xml:space="preserve">
<style type="text/css">
	.st0{clip-path:url(#SVGID_2_);}
	.st1{clip-path:url(#SVGID_4_);fill:#FFFFFF;}
	.st2{clip-path:url(#SVGID_4_);fill:#E02029;}
	.st3{clip-path:url(#SVGID_4_);fill:#082B49;}
	.st4{clip-path:url(#SVGID_4_);fill:url(#SVGID_5_);}
	.st5{clip-path:url(#SVGID_4_);fill:#39C6F3;}
	.st6{clip-path:url(#SVGID_7_);fill:url(#SVGID_8_);}
	.st7{clip-path:url(#SVGID_10_);fill:url(#SVGID_11_);}
	.st8{clip-path:url(#SVGID_10_);fill:#FFFFFF;}
	.st9{clip-path:url(#SVGID_13_);fill:url(#SVGID_14_);}
	.st10{clip-path:url(#SVGID_16_);fill:#5B7E93;}
	.st11{clip-path:url(#SVGID_16_);fill:#E02029;}
	.st12{clip-path:url(#SVGID_16_);fill:#A3BAC8;}
	.st13{clip-path:url(#SVGID_16_);fill:#39C6F3;}
</style>
<g>
	<g>
		<defs>
			<rect id="SVGID_1_" x="-72" y="-99.9" width="424" height="299.8"/>
		</defs>
		<clipPath id="SVGID_2_">
			<use xlink:href="#SVGID_1_"  style="overflow:visible;"/>
		</clipPath>
		<g class="st0">
			<defs>
				<rect id="SVGID_3_" x="-72" y="-99.9" width="424" height="299.8"/>
			</defs>
			<clipPath id="SVGID_4_">
				<use xlink:href="#SVGID_3_"  style="overflow:visible;"/>
			</clipPath>
			<path class="st1" d="M127.89,33.02h-15.36c0.28,1.26,0.93,2.25,1.96,2.98c1.03,0.73,2.31,1.09,3.85,1.09
				c1.06,0,1.99-0.16,2.81-0.47c0.82-0.31,1.58-0.81,2.28-1.49l3.13,3.4c-1.91,2.19-4.7,3.28-8.38,3.28c-2.29,0-4.32-0.45-6.08-1.34
				c-1.76-0.89-3.12-2.13-4.08-3.72c-0.96-1.58-1.43-3.38-1.43-5.4c0-1.99,0.47-3.78,1.42-5.38c0.94-1.6,2.24-2.84,3.89-3.73
				c1.65-0.89,3.49-1.34,5.53-1.34c1.99,0,3.79,0.43,5.4,1.28c1.61,0.85,2.87,2.08,3.79,3.68c0.92,1.6,1.38,3.45,1.38,5.57
				C128,31.51,127.97,32.04,127.89,33.02 M114.12,26.49c-0.91,0.75-1.46,1.79-1.66,3.09h10c-0.2-1.28-0.76-2.31-1.66-3.08
				c-0.91-0.77-2.01-1.15-3.32-1.15C116.14,25.36,115.02,25.74,114.12,26.49"/>
			<path class="st1" d="M132.87,41.19c-1.61-0.42-2.89-0.94-3.85-1.57l1.96-4.23c0.91,0.58,2,1.05,3.28,1.42
				c1.28,0.36,2.54,0.55,3.77,0.55c2.49,0,3.74-0.62,3.74-1.85c0-0.58-0.34-0.99-1.02-1.25c-0.68-0.25-1.72-0.47-3.13-0.64
				c-1.66-0.25-3.03-0.54-4.11-0.87c-1.08-0.33-2.02-0.91-2.81-1.73c-0.79-0.83-1.19-2.01-1.19-3.55c0-1.28,0.37-2.42,1.11-3.42
				c0.74-0.99,1.82-1.77,3.25-2.32c1.42-0.55,3.1-0.83,5.04-0.83c1.43,0,2.86,0.16,4.28,0.47c1.42,0.32,2.6,0.75,3.53,1.3
				l-1.96,4.19c-1.79-1.01-3.74-1.51-5.85-1.51c-1.26,0-2.2,0.18-2.83,0.53c-0.63,0.35-0.94,0.81-0.94,1.36
				c0,0.63,0.34,1.07,1.02,1.32c0.68,0.25,1.76,0.49,3.25,0.72c1.66,0.28,3.02,0.57,4.08,0.89c1.06,0.31,1.97,0.89,2.76,1.72
				c0.78,0.83,1.17,1.99,1.17,3.47c0,1.26-0.38,2.38-1.13,3.36c-0.76,0.98-1.86,1.74-3.3,2.28c-1.45,0.54-3.16,0.81-5.15,0.81
				C136.13,41.82,134.48,41.61,132.87,41.19"/>
			<polygon class="st1" points="158.8,33.55 155.97,36.34 155.97,41.51 150.08,41.51 150.08,13.51 155.97,13.51 155.97,29.36 
				164.57,21.21 171.59,21.21 163.14,29.82 172.35,41.51 165.21,41.51 			"/>
			<path class="st2" d="M174.2,17.44c-0.68-0.63-1.02-1.41-1.02-2.34c0-0.93,0.34-1.71,1.02-2.34c0.68-0.63,1.56-0.94,2.64-0.94
				c1.08,0,1.96,0.3,2.64,0.91c0.68,0.6,1.02,1.36,1.02,2.26c0,0.98-0.34,1.79-1.02,2.44c-0.68,0.64-1.56,0.96-2.64,0.96
				C175.76,18.38,174.87,18.07,174.2,17.44"/>
			<rect x="173.89" y="21.21" class="st1" width="5.89" height="20.3"/>
			<path class="st1" d="M186.2,41.19c-1.61-0.42-2.89-0.94-3.85-1.57l1.96-4.23c0.91,0.58,2,1.05,3.28,1.42
				c1.28,0.36,2.54,0.55,3.77,0.55c2.49,0,3.74-0.62,3.74-1.85c0-0.58-0.34-0.99-1.02-1.24c-0.68-0.25-1.72-0.47-3.13-0.64
				c-1.66-0.25-3.03-0.54-4.11-0.87c-1.08-0.33-2.02-0.91-2.81-1.74c-0.79-0.83-1.19-2.01-1.19-3.55c0-1.28,0.37-2.42,1.11-3.42
				c0.74-0.99,1.82-1.77,3.24-2.32c1.42-0.55,3.1-0.83,5.04-0.83c1.43,0,2.86,0.16,4.28,0.47c1.42,0.32,2.6,0.75,3.53,1.3
				l-1.96,4.19c-1.79-1.01-3.74-1.51-5.85-1.51c-1.26,0-2.2,0.18-2.83,0.53c-0.63,0.35-0.94,0.81-0.94,1.36
				c0,0.63,0.34,1.07,1.02,1.32c0.68,0.25,1.76,0.49,3.25,0.72c1.66,0.28,3.02,0.57,4.07,0.89c1.06,0.31,1.97,0.89,2.75,1.72
				c0.78,0.83,1.17,1.99,1.17,3.47c0,1.26-0.38,2.38-1.13,3.36c-0.76,0.98-1.86,1.74-3.3,2.28c-1.45,0.54-3.16,0.81-5.15,0.81
				C189.45,41.82,187.81,41.61,186.2,41.19 M188.27,50.06c-0.63-0.14-1.16-0.33-1.58-0.58l0.91-2.53c0.81,0.38,1.62,0.57,2.45,0.57
				c1.31,0,1.96-0.4,1.96-1.21c0-0.73-0.62-1.09-1.85-1.09h-1.28l0.98-4h3.13l-0.53,2.19c1.11,0.13,1.93,0.47,2.47,1.04
				c0.54,0.57,0.81,1.26,0.81,2.09c0,1.16-0.5,2.07-1.51,2.74c-1.01,0.67-2.35,1-4.04,1C189.54,50.27,188.9,50.2,188.27,50.06"/>
			<path class="st1" d="M223.18,33.02h-15.36c0.28,1.26,0.93,2.25,1.96,2.98c1.03,0.73,2.31,1.09,3.85,1.09
				c1.06,0,1.99-0.16,2.81-0.47c0.82-0.31,1.58-0.81,2.28-1.49l3.13,3.4c-1.91,2.19-4.71,3.28-8.38,3.28
				c-2.29,0-4.32-0.45-6.08-1.34c-1.76-0.89-3.12-2.13-4.08-3.72c-0.96-1.58-1.43-3.38-1.43-5.4c0-1.99,0.47-3.78,1.42-5.38
				c0.94-1.6,2.24-2.84,3.89-3.73c1.65-0.89,3.49-1.34,5.53-1.34c1.99,0,3.79,0.43,5.4,1.28c1.61,0.85,2.88,2.08,3.79,3.68
				c0.92,1.6,1.38,3.45,1.38,5.57C223.29,31.51,223.25,32.04,223.18,33.02 M209.41,26.49c-0.91,0.75-1.46,1.79-1.66,3.09h10
				c-0.2-1.28-0.75-2.31-1.66-3.08c-0.91-0.77-2.01-1.15-3.32-1.15C211.43,25.36,210.31,25.74,209.41,26.49"/>
			<path class="st1" d="M244.71,23.17c1.55,1.51,2.32,3.75,2.32,6.72v11.62h-5.89V30.8c0-1.61-0.35-2.81-1.06-3.6
				c-0.7-0.79-1.72-1.19-3.06-1.19c-1.49,0-2.67,0.46-3.55,1.38c-0.88,0.92-1.32,2.28-1.32,4.1v10.04h-5.89v-28h5.89v9.81
				c0.78-0.78,1.72-1.38,2.83-1.79s2.32-0.62,3.62-0.62C241.13,20.91,243.16,21.66,244.71,23.17"/>
			<path class="st2" d="M251.71,17.44c-0.68-0.63-1.02-1.41-1.02-2.34c0-0.93,0.34-1.71,1.02-2.34c0.68-0.63,1.56-0.94,2.64-0.94
				c1.08,0,1.96,0.3,2.64,0.91c0.68,0.6,1.02,1.36,1.02,2.26c0,0.98-0.34,1.79-1.02,2.44c-0.68,0.64-1.56,0.96-2.64,0.96
				C253.27,18.38,252.39,18.07,251.71,17.44"/>
			<rect x="251.41" y="21.21" class="st1" width="5.89" height="20.3"/>
			<path class="st1" d="M270.29,21.66c1.19-0.5,2.57-0.76,4.13-0.76v5.43c-0.65-0.05-1.09-0.08-1.32-0.08
				c-1.69,0-3.01,0.47-3.96,1.41c-0.96,0.94-1.43,2.36-1.43,4.25v9.59h-5.89v-20.3h5.62v2.68C268.15,22.91,269.1,22.17,270.29,21.66
				"/>
			<path class="st1" d="M123.91,60.09c1.62,1.61,2.43,3.93,2.43,6.95v12.93h-2.13V67.21c0-2.49-0.63-4.38-1.9-5.68
				c-1.26-1.3-3.03-1.95-5.3-1.95c-2.61,0-4.67,0.78-6.17,2.33c-1.5,1.56-2.26,3.65-2.26,6.27v11.78h-2.13V48.52h2.13v13.94
				c0.77-1.52,1.9-2.7,3.41-3.54c1.5-0.83,3.28-1.25,5.32-1.25C120.09,57.68,122.29,58.48,123.91,60.09"/>
			<path class="st2" d="M133.87,51.98c-0.34-0.33-0.51-0.73-0.51-1.21c0-0.48,0.17-0.89,0.51-1.23c0.34-0.34,0.75-0.51,1.23-0.51
				c0.48,0,0.89,0.16,1.23,0.49c0.34,0.33,0.51,0.73,0.51,1.21c0,0.48-0.17,0.89-0.51,1.23c-0.34,0.34-0.75,0.51-1.23,0.51
				C134.62,52.46,134.21,52.3,133.87,51.98"/>
			<rect x="134.04" y="57.85" class="st1" width="2.13" height="22.12"/>
			<path class="st1" d="M163.84,48.52v31.44h-2.09v-5.21c-0.88,1.72-2.11,3.05-3.7,3.98c-1.59,0.93-3.39,1.4-5.41,1.4
				c-2.07,0-3.95-0.48-5.62-1.44c-1.67-0.96-2.99-2.29-3.94-3.98c-0.95-1.7-1.43-3.63-1.43-5.81c0-2.18,0.48-4.12,1.43-5.83
				c0.95-1.71,2.26-3.04,3.94-3.98c1.67-0.95,3.55-1.42,5.62-1.42c1.99,0,3.77,0.47,5.34,1.4c1.57,0.93,2.82,2.23,3.72,3.9V48.52
				H163.84z M157.35,77.04c1.35-0.79,2.41-1.89,3.19-3.3c0.78-1.41,1.17-3.02,1.17-4.83c0-1.81-0.39-3.42-1.17-4.83
				c-0.78-1.41-1.85-2.51-3.19-3.31c-1.35-0.79-2.87-1.19-4.58-1.19c-1.7,0-3.23,0.4-4.58,1.19c-1.35,0.79-2.41,1.89-3.19,3.31
				c-0.78,1.41-1.17,3.02-1.17,4.83c0,1.81,0.39,3.42,1.17,4.83c0.78,1.41,1.84,2.52,3.19,3.3c1.35,0.79,2.87,1.19,4.58,1.19
				C154.47,78.23,156,77.83,157.35,77.04"/>
			<path class="st1" d="M176.99,58.97c1.45-0.86,3.21-1.29,5.28-1.29v2.08l-0.51-0.04c-2.47,0-4.4,0.77-5.79,2.31
				c-1.39,1.54-2.09,3.68-2.09,6.42v11.53h-2.13V57.85h2.04v4.83C174.48,61.07,175.55,59.83,176.99,58.97"/>
			<path class="st1" d="M189.87,78.7c-1.69-0.96-3.02-2.3-3.98-4c-0.96-1.71-1.45-3.64-1.45-5.78c0-2.15,0.48-4.07,1.45-5.79
				c0.96-1.71,2.29-3.04,3.98-4.01c1.69-0.96,3.58-1.44,5.68-1.44c2.1,0,3.99,0.48,5.68,1.44c1.69,0.96,3.02,2.3,3.98,4.01
				c0.97,1.71,1.45,3.64,1.45,5.79c0,2.15-0.48,4.07-1.45,5.78c-0.96,1.71-2.29,3.04-3.98,4c-1.69,0.96-3.58,1.44-5.68,1.44
				C193.45,80.14,191.56,79.66,189.87,78.7 M200.13,77.04c1.35-0.79,2.41-1.89,3.19-3.3c0.78-1.41,1.17-3.02,1.17-4.83
				c0-1.81-0.39-3.42-1.17-4.83c-0.78-1.41-1.84-2.51-3.19-3.31c-1.35-0.79-2.87-1.19-4.58-1.19c-1.7,0-3.23,0.4-4.58,1.19
				c-1.35,0.79-2.41,1.89-3.19,3.31c-0.78,1.41-1.17,3.02-1.17,4.83c0,1.81,0.39,3.42,1.17,4.83c0.78,1.41,1.84,2.52,3.19,3.3
				c1.35,0.79,2.87,1.19,4.58,1.19C197.26,78.23,198.78,77.83,200.13,77.04"/>
			<path class="st1" d="M228.97,59.12c1.67,0.96,2.99,2.29,3.94,3.98c0.95,1.7,1.43,3.63,1.43,5.81c0,2.18-0.48,4.12-1.43,5.83
				c-0.95,1.71-2.26,3.04-3.94,3.98c-1.68,0.95-3.55,1.42-5.62,1.42c-1.96,0-3.73-0.46-5.32-1.38c-1.59-0.92-2.83-2.2-3.7-3.84
				v13.27h-2.13V57.85h2.04v5.21c0.88-1.7,2.12-3.01,3.73-3.96c1.6-0.95,3.4-1.42,5.38-1.42C225.43,57.68,227.3,58.16,228.97,59.12
				 M227.82,77.04c1.36-0.79,2.43-1.89,3.22-3.3c0.78-1.41,1.17-3.02,1.17-4.83c0-1.81-0.39-3.42-1.17-4.83
				c-0.78-1.41-1.85-2.51-3.22-3.31c-1.36-0.79-2.89-1.19-4.6-1.19c-1.7,0-3.23,0.4-4.58,1.19c-1.35,0.79-2.41,1.89-3.19,3.31
				c-0.78,1.41-1.17,3.02-1.17,4.83c0,1.81,0.39,3.42,1.17,4.83c0.78,1.41,1.85,2.52,3.19,3.3c1.35,0.79,2.87,1.19,4.58,1.19
				C224.93,78.23,226.46,77.83,227.82,77.04"/>
			<path class="st1" d="M253.62,59.77c1.48,1.4,2.21,3.45,2.21,6.17v14.03h-2.04v-3.94c-0.71,1.3-1.75,2.31-3.11,3.03
				c-1.36,0.72-2.99,1.08-4.9,1.08c-2.47,0-4.42-0.58-5.85-1.74c-1.43-1.16-2.15-2.69-2.15-4.58c0-1.84,0.66-3.33,1.98-4.47
				c1.32-1.15,3.43-1.72,6.32-1.72h7.62v-1.78c0-2.06-0.56-3.63-1.68-4.7c-1.12-1.07-2.76-1.61-4.92-1.61
				c-1.48,0-2.89,0.25-4.24,0.76c-1.35,0.51-2.49,1.19-3.43,2.03l-1.06-1.53c1.11-0.99,2.44-1.76,4-2.31
				c1.56-0.55,3.19-0.83,4.9-0.83C250.03,57.68,252.15,58.38,253.62,59.77 M250.79,77.13c1.29-0.85,2.26-2.08,2.91-3.69v-4.15h-7.58
				c-2.19,0-3.77,0.39-4.75,1.19c-0.98,0.79-1.47,1.88-1.47,3.26c0,1.44,0.54,2.58,1.62,3.41c1.08,0.83,2.6,1.25,4.56,1.25
				C247.93,78.4,249.5,77.97,250.79,77.13"/>
			<path class="st1" d="M268.78,58.97c1.45-0.86,3.21-1.29,5.28-1.29v2.08l-0.51-0.04c-2.47,0-4.4,0.77-5.79,2.31
				c-1.39,1.54-2.09,3.68-2.09,6.42v11.53h-2.13V57.85h2.04v4.83C266.27,61.07,267.33,59.83,268.78,58.97"/>
			<path class="st3" d="M57.92,65.89c-2.16,1.04-3.18,3.09-2.66,5.35c0.59,2.57,2.94,4.51,5.46,4.51c0.82,0,1.63-0.19,2.42-0.57
				c9.59-4.64,15.68-14.29,15.87-25.19c0.19-10.41-6.19-20.55-15.87-25.23c-0.79-0.38-1.6-0.57-2.42-0.57
				c-2.52,0-4.87,1.94-5.46,4.5c-0.52,2.26,0.5,4.31,2.66,5.35c4.71,2.28,8.06,6.02,9.56,10.65H35.29c1.48-4.49,5-8.41,9.64-10.65
				c2.16-1.04,3.18-3.09,2.66-5.35c-0.59-2.57-2.93-4.51-5.46-4.51c-0.82,0-1.63,0.19-2.42,0.57c-9.59,4.64-15.67,14.29-15.87,25.19
				c-0.19,10.41,6.19,20.55,15.87,25.23c0.79,0.38,1.6,0.57,2.42,0.57c2.52,0,4.87-1.94,5.46-4.51c0.52-2.26-0.5-4.31-2.66-5.35
				c-4.71-2.27-8.06-6.02-9.56-10.65h32.19C66.08,59.74,62.56,63.65,57.92,65.89"/>
			
				<linearGradient id="SVGID_5_" gradientUnits="userSpaceOnUse" x1="3.611" y1="-1.873" x2="4.1146" y2="-1.873" gradientTransform="matrix(-4.519180e-06 103.387 103.387 4.519180e-06 245.075 -349.398)">
				<stop  offset="0" style="stop-color:#082B49"/>
				<stop  offset="1" style="stop-color:#A3BAC8"/>
			</linearGradient>
			<path class="st4" d="M57.92,65.89L57.92,65.89c-1.79,0.86-2.79,2.42-2.79,4.21c0,0.37,0.04,0.75,0.13,1.14
				c0.59,2.57,2.94,4.51,5.46,4.51c0.82,0,1.63-0.19,2.42-0.57c9.59-4.64,15.68-14.29,15.87-25.19c0-0.15,0-0.3,0-0.44
				c0-10.26-6.33-20.17-15.87-24.78c-0.79-0.38-1.6-0.57-2.42-0.57c-2.52,0-4.87,1.94-5.46,4.5c-0.09,0.39-0.13,0.77-0.13,1.14
				c0,1.79,1.01,3.34,2.79,4.21c4.71,2.28,8.06,6.02,9.56,10.65H35.29c1.48-4.49,5-8.41,9.64-10.65c1.79-0.86,2.79-2.42,2.79-4.2
				c0-0.37-0.04-0.75-0.13-1.14c-0.59-2.57-2.93-4.51-5.46-4.51c-0.82,0-1.63,0.19-2.42,0.57c-9.59,4.64-15.67,14.29-15.87,25.19
				c0,0.15,0,0.3,0,0.44c0,10.25,6.33,20.17,15.88,24.79c0.79,0.38,1.6,0.57,2.42,0.57c2.52,0,4.87-1.94,5.46-4.51
				c0.09-0.39,0.13-0.77,0.13-1.14c0-1.79-1.01-3.34-2.79-4.21c-4.71-2.27-8.06-6.02-9.56-10.65h32.19
				C66.08,59.74,62.56,63.65,57.92,65.89L57.92,65.89L57.92,65.89c4.64-2.24,8.15-6.16,9.64-10.65H35.37
				c1.5,4.62,4.85,8.37,9.56,10.65c1.79,0.86,2.79,2.42,2.79,4.21c0,0.37-0.04,0.75-0.13,1.14c-0.59,2.57-2.93,4.51-5.46,4.51
				c-0.82,0-1.63-0.19-2.42-0.57c-9.54-4.61-15.88-14.53-15.88-24.79c0-0.15,0-0.3,0-0.44c0.2-10.9,6.28-20.55,15.87-25.19
				c0.79-0.38,1.6-0.57,2.42-0.57c2.53,0,4.87,1.94,5.46,4.51c0.09,0.39,0.13,0.77,0.13,1.14c0,1.79-1.01,3.34-2.79,4.2
				c-4.64,2.24-8.16,6.16-9.64,10.65h32.19c-1.5-4.63-4.85-8.37-9.56-10.65c-1.79-0.86-2.79-2.42-2.79-4.21
				c0-0.37,0.04-0.76,0.13-1.14c0.59-2.57,2.93-4.5,5.46-4.5c0.82,0,1.63,0.19,2.42,0.57c9.54,4.61,15.87,14.53,15.87,24.78
				c0,0.15,0,0.3,0,0.44c-0.19,10.9-6.28,20.55-15.87,25.19c-0.79,0.38-1.6,0.57-2.42,0.57c-2.52,0-4.87-1.94-5.46-4.51
				c-0.09-0.39-0.13-0.77-0.13-1.14C55.13,68.31,56.13,66.76,57.92,65.89L57.92,65.89z"/>
			<path class="st5" d="M79.74,13.81c-8.06-6.27-18.17-9.73-28.46-9.73c-3.97,0-7.94,0.5-11.8,1.5C26.39,8.95,14.84,18.9,9.35,31.55
				c-5.7,13.11-4.9,28.49,2.13,41.14c6.04,10.86,17.1,19.11,29.59,22.05c3.32,0.78,6.74,1.18,10.16,1.18
				c11.69,0,22.98-4.47,31.79-12.58c1.67-1.53,2.2-3.65,1.41-5.66c-0.88-2.26-3.15-3.84-5.52-3.84c-1.36,0-2.66,0.53-3.74,1.52
				c-6.53,6.01-15.03,9.32-23.94,9.33c-5.23,0-10.25-1.14-14.91-3.39c-11.2-5.39-18.7-16.48-19.59-28.92
				c-0.88-12.46,5.11-24.54,15.65-31.51c5.57-3.68,12.13-5.63,18.97-5.63c5.77,0,11.48,1.41,16.53,4.09
				c9.4,4.99,15.99,14.29,17.81,25.04c-3.49,0.07-5.32,2.85-5.32,5.59c0,2.78,1.87,5.59,5.45,5.59h5.97c1.47,0,2.92-0.61,3.98-1.68
				c1.06-1.07,1.63-2.46,1.62-3.92C97.23,35.81,90.64,22.3,79.74,13.81"/>
		</g>
		<g class="st0">
			<defs>
				<path id="SVGID_6_" d="M39.76,6.66C26.77,10.01,15.7,19.75,10.37,32C4.74,44.96,5.6,59.81,12.45,72.14
					c6.02,10.84,16.87,18.67,28.87,21.51c14.62,3.45,29.98-1.05,40.94-11.14c4.25-3.92-2.09-10.23-6.33-6.33
					c-10.8,9.94-26.82,12.52-40.1,6.12c-11.52-5.55-19.32-17.12-20.22-29.86c-0.92-12.9,5.4-25.41,16.15-32.52
					c10.9-7.21,25.16-7.69,36.64-1.59c10.32,5.48,17.07,15.78,18.58,27.15h-1.17c-5.77,0-5.77,8.95,0,8.95h5.97
					c2.42,0,4.5-2.04,4.47-4.48c-0.14-13.71-6.35-26.82-17.21-35.27C71.01,8.44,61.23,5.2,51.28,5.2
					C47.44,5.2,43.57,5.68,39.76,6.66"/>
			</defs>
			<clipPath id="SVGID_7_">
				<use xlink:href="#SVGID_6_"  style="overflow:visible;"/>
			</clipPath>
			
				<linearGradient id="SVGID_8_" gradientUnits="userSpaceOnUse" x1="-1.36" y1="0.903" x2="-0.8564" y2="0.903" gradientTransform="matrix(-9.400000e-06 -215.5435 -215.5435 9.400000e-06 245.1436 -187.8584)">
				<stop  offset="0" style="stop-color:#A3BAC8"/>
				<stop  offset="1" style="stop-color:#082B49"/>
			</linearGradient>
			<rect x="4.74" y="5.2" class="st6" width="91.54" height="91.9"/>
		</g>
		<g class="st0">
			<defs>
				<rect id="SVGID_9_" x="-72" y="-99.9" width="424" height="299.8"/>
			</defs>
			<clipPath id="SVGID_10_">
				<use xlink:href="#SVGID_9_"  style="overflow:visible;"/>
			</clipPath>
			
				<linearGradient id="SVGID_11_" gradientUnits="userSpaceOnUse" x1="-0.8345" y1="-1.9432" x2="-0.3308" y2="-1.9432" gradientTransform="matrix(178.897 0 0 -178.897 155.695 -297.641)">
				<stop  offset="0" style="stop-color:#A3BAC8"/>
				<stop  offset="1" style="stop-color:#082B49"/>
			</linearGradient>
			<path class="st7" d="M79.04,14.69L79.04,14.69C71.01,8.44,61.23,5.2,51.28,5.2c-3.84,0-7.71,0.48-11.52,1.46
				C26.77,10.01,15.69,19.75,10.37,32c-2.49,5.72-3.71,11.81-3.71,17.89c0,7.69,1.96,15.37,5.79,22.26
				c6.02,10.84,16.87,18.67,28.87,21.51c3.28,0.78,6.6,1.15,9.9,1.15c11.39,0,22.53-4.46,31.04-12.28c0.99-0.91,1.41-1.96,1.41-2.97
				c0-2.37-2.27-4.58-4.75-4.58c-1.01,0-2.04,0.36-2.98,1.23c-6.82,6.28-15.72,9.62-24.7,9.62c-5.24,0-10.51-1.14-15.4-3.5
				c-11.52-5.55-19.32-17.12-20.22-29.86c-0.06-0.83-0.09-1.65-0.09-2.47c0-12.01,6.18-23.39,16.24-30.05
				c5.87-3.88,12.72-5.81,19.59-5.81c5.87,0,11.76,1.41,17.05,4.22c10.32,5.48,17.07,15.78,18.58,27.15h-1.17
				c-2.89,0-4.33,2.24-4.33,4.48c0,2.24,1.44,4.48,4.33,4.48h5.97c2.4,0,4.47-2.01,4.47-4.43c0-0.01,0-0.03,0-0.04
				C96.12,36.25,89.91,23.15,79.04,14.69L79.04,14.69L79.04,14.69c10.87,8.46,17.07,21.56,17.21,35.27c0,0.01,0,0.03,0,0.04
				c0,2.42-2.07,4.43-4.47,4.43h-5.97c-2.89,0-4.33-2.24-4.33-4.48c0-2.24,1.44-4.48,4.33-4.48h1.17
				c-1.51-11.37-8.26-21.67-18.58-27.15c-5.29-2.81-11.18-4.22-17.05-4.22c-6.87,0-13.72,1.93-19.59,5.81
				c-10.06,6.66-16.24,18.04-16.24,30.05c0,0.82,0.03,1.65,0.09,2.47c0.9,12.74,8.7,24.31,20.22,29.86c4.89,2.36,10.16,3.5,15.4,3.5
				c8.98,0,17.87-3.34,24.7-9.62c0.94-0.86,1.98-1.23,2.98-1.23c2.48,0,4.75,2.21,4.75,4.58c0,1.01-0.42,2.06-1.41,2.97
				c-8.5,7.82-19.64,12.28-31.04,12.28c-3.3,0-6.62-0.37-9.9-1.15c-12-2.83-22.84-10.67-28.87-21.51
				c-3.83-6.89-5.79-14.56-5.79-22.26c0-6.08,1.22-12.17,3.71-17.89c5.32-12.24,16.4-21.99,29.39-25.33
				c3.81-0.98,7.68-1.46,11.52-1.46C61.23,5.2,71.01,8.44,79.04,14.69L79.04,14.69z"/>
			<path class="st8" d="M57.92,65.89c-2.16,1.04-3.18,3.09-2.66,5.35c0.59,2.57,2.94,4.51,5.46,4.51c0.82,0,1.63-0.19,2.42-0.57
				c9.59-4.64,15.68-14.29,15.87-25.19c0.19-10.41-6.19-20.55-15.87-25.23c-0.79-0.38-1.6-0.57-2.42-0.57
				c-2.52,0-4.87,1.94-5.46,4.5c-0.52,2.26,0.5,4.31,2.66,5.35c4.71,2.28,8.06,6.02,9.56,10.65H35.29c1.48-4.49,5-8.41,9.64-10.65
				c2.16-1.04,3.18-3.09,2.66-5.35c-0.59-2.57-2.93-4.51-5.46-4.51c-0.82,0-1.63,0.19-2.42,0.57c-9.59,4.64-15.67,14.29-15.87,25.19
				c-0.19,10.41,6.19,20.55,15.87,25.23c0.79,0.38,1.6,0.57,2.42,0.57c2.52,0,4.87-1.94,5.46-4.51c0.52-2.26-0.5-4.31-2.66-5.35
				c-4.71-2.27-8.06-6.02-9.56-10.65h32.19C66.08,59.74,62.56,63.65,57.92,65.89"/>
		</g>
		<g class="st0">
			<defs>
				<path id="SVGID_12_" d="M39.76,6.66C26.77,10.01,15.7,19.75,10.37,32C4.74,44.96,5.6,59.81,12.45,72.14
					c6.02,10.84,16.87,18.67,28.87,21.51c14.62,3.45,29.98-1.05,40.94-11.14c4.25-3.92-2.09-10.23-6.33-6.33
					c-10.8,9.94-26.82,12.52-40.1,6.12c-11.52-5.55-19.32-17.12-20.22-29.86c-0.92-12.9,5.4-25.41,16.15-32.52
					c10.9-7.21,25.16-7.69,36.64-1.59c10.32,5.48,17.07,15.78,18.58,27.15h-1.17c-5.77,0-5.77,8.95,0,8.95h5.97
					c2.42,0,4.5-2.04,4.47-4.48c-0.14-13.71-6.35-26.82-17.21-35.27C71.01,8.44,61.23,5.2,51.28,5.2
					C47.44,5.2,43.57,5.68,39.76,6.66"/>
			</defs>
			<clipPath id="SVGID_13_">
				<use xlink:href="#SVGID_12_"  style="overflow:visible;"/>
			</clipPath>
			
				<linearGradient id="SVGID_14_" gradientUnits="userSpaceOnUse" x1="-1.36" y1="0.903" x2="-0.8564" y2="0.903" gradientTransform="matrix(-9.400000e-06 -215.5435 -215.5435 9.400000e-06 245.1436 -187.8584)">
				<stop  offset="0" style="stop-color:#A3BAC8"/>
				<stop  offset="1" style="stop-color:#082B49"/>
			</linearGradient>
			<rect x="4.74" y="5.2" class="st9" width="91.54" height="91.9"/>
		</g>
		<g class="st0">
			<defs>
				<rect id="SVGID_15_" x="-72" y="-99.9" width="424" height="299.8"/>
			</defs>
			<clipPath id="SVGID_16_">
				<use xlink:href="#SVGID_15_"  style="overflow:visible;"/>
			</clipPath>
			<path class="st10" d="M75.93,76.19c-10.8,9.94-26.82,12.52-40.1,6.12c-11.52-5.55-19.32-17.12-20.22-29.86
				c-0.15-2.14-0.1-4.27,0.13-6.37c-3.48,0.78-6.52,1.78-9.07,2.81c-0.18,8.02,1.78,16.07,5.77,23.25
				c6.02,10.84,16.87,18.67,28.87,21.51c14.62,3.45,29.98-1.05,40.94-11.14C86.51,78.6,80.16,72.29,75.93,76.19"/>
			<path class="st11" d="M91.79,54.44c2.42,0,4.5-2.04,4.47-4.48c-0.02-2.46-0.25-4.9-0.66-7.3c-4.81,4.83-9.39,7.72-13.71,9.28
				c0.61,1.41,1.92,2.5,3.93,2.5H91.79z"/>
			<path class="st12" d="M56.65,49.53c-12.53-4.52-23.38-5.48-32.26-4.76c-0.33,1.68-0.52,3.41-0.55,5.17
				c-0.19,10.41,6.19,20.55,15.87,25.23c0.79,0.38,1.6,0.57,2.42,0.57c2.52,0,4.87-1.94,5.46-4.51c0.52-2.26-0.5-4.31-2.66-5.35
				c-4.71-2.27-8.06-6.02-9.56-10.65H50.2C53.1,53.47,56.63,49.56,56.65,49.53"/>
			<path class="st13" d="M57.92,65.89c-2.16,1.04-3.18,3.09-2.66,5.35c0.59,2.57,2.94,4.51,5.46,4.51c0.82,0,1.63-0.19,2.42-0.57
				c8.74-4.23,14.57-12.62,15.68-22.33c-7.69,1.77-14.47-0.37-20.14-2.56c-0.68-0.26-1.35-0.51-2.03-0.75
				c-0.02,0.03-3.55,3.93-6.45,5.71h17.36C66.08,59.74,62.56,63.65,57.92,65.89"/>
		</g>
	</g>
</g>
</svg>
